<svg width="109" height="109" fill="none" xmlns="http://www.w3.org/2000/svg"><g filter="url(#a)"><circle cx="54.5" cy="44.5" r="41.5" fill="url(#b)" fill-opacity=".8" shape-rendering="crispEdges"/></g><path d="M66.848 42.859c2.328 1.458 3.491 2.187 3.89 3.12a3.247 3.247 0 0 1 0 2.553c-.399.933-1.562 1.662-3.89 3.12l-10.933 6.847c-2.583 1.618-3.875 2.427-4.94 2.341a3.232 3.232 0 0 1-2.337-1.297C48 58.683 48 57.156 48 54.103V40.408c0-3.053 0-4.58.638-5.44a3.232 3.232 0 0 1 2.336-1.298c1.066-.086 2.358.724 4.941 2.342l10.933 6.847Z" stroke="#fff" stroke-width="2" stroke-linejoin="round"/><defs><linearGradient id="b" x1="54.5" y1="3" x2="54.5" y2="86" gradientUnits="userSpaceOnUse"><stop stop-color="#172F70"/><stop offset="1" stop-color="#2C5AD6"/></linearGradient><filter id="a" x=".1" y=".1" width="108.8" height="108.8" filterUnits="userSpaceOnUse" color-interpolation-filters="sRGB"><feFlood flood-opacity="0" result="BackgroundImageFix"/><feColorMatrix in="SourceAlpha" values="0 0 0 0 0 0 0 0 0 0 0 0 0 0 0 0 0 0 127 0" result="hardAlpha"/><feMorphology radius="4" in="SourceAlpha" result="effect1_dropShadow_21_19"/><feOffset dy="10"/><feGaussianBlur stdDeviation="8.45"/><feComposite in2="hardAlpha" operator="out"/><feColorMatrix values="0 0 0 0 0 0 0 0 0 0 0 0 0 0 0 0 0 0 0.52 0"/><feBlend in2="BackgroundImageFix" result="effect1_dropShadow_21_19"/><feBlend in="SourceGraphic" in2="effect1_dropShadow_21_19" result="shape"/></filter></defs></svg>