<?xml version="1.0" encoding="UTF-8"?>
<svg id="Layer_1" data-name="Layer 1" xmlns="http://www.w3.org/2000/svg" viewBox="0 0 443.73 100.34">
  <defs>
    <style>
      .cls-1 {
        font-family: Poppins-SemiBold, Poppins;
        font-size: 46.49px;
        font-weight: 600;
        letter-spacing: .27em;
      }

      .cls-1, .cls-2 {
        fill: #fff;
      }

      .cls-2 {
        stroke-width: 0px;
      }
    </style>
  </defs>
  <text class="cls-1" transform="translate(114.35 66.91) scale(.94 1)"><tspan x="0" y="0">PAYMENTA</tspan></text>
  <path class="cls-2" d="M50.54,7.83C27.34,7.83,8.54,26.63,8.54,49.83c0,18.01,11.33,33.37,27.26,39.34,3.04,1.14,6.25,1.94,9.58,2.34v-26.61h8.01c3.92,0,7.17-.73,9.75-2.18,2.58-1.45,4.47-3.36,5.68-5.73,1.21-2.37,1.81-4.92,1.81-7.63,0-3-.65-5.68-1.95-8.05s-3.25-4.24-5.85-5.59c-2.6-1.36-5.75-2.03-9.44-2.03h-17.59v44.53c-10.25-5.33-17.26-16.06-17.26-28.39,0-17.65,14.35-32,32-32s32,14.35,32,32c0,15.18-10.63,27.94-24.85,31.2v10.19c19.79-3.39,34.85-20.63,34.85-41.39,0-23.2-18.8-42-42-42ZM45.38,41.96h7.6c5.2,0,7.8,2.47,7.8,7.4,0,2.33-.64,4.13-1.92,5.41-1.28,1.28-3.24,1.92-5.88,1.92h-7.6v-14.73Z"/>
</svg>